<svg width="200" height="200" viewBox="0 0 200 200" fill="none" xmlns="http://www.w3.org/2000/svg">
  <!-- Define Gradients -->
  <defs>
    <linearGradient id="blueGradient" x1="0%" y1="0%" x2="100%" y2="100%">
      <stop offset="0%" style="stop-color:#0284c7;stop-opacity:1" />
      <stop offset="100%" style="stop-color:#38bdf8;stop-opacity:1" />
    </linearGradient>
  </defs>

  <!-- 'A' Left Side (Blue) -->
  <path d="M40 160L85 60L100 95L65 160H40Z" fill="url(#blueGradient)" />
  
  <!-- 'M' Right Side (Dark) -->
  <path d="M160 160L115 60L100 95L135 160H160Z" fill="#0f172a" />
  
  <!-- Middle Junction / Common Path -->
  <path d="M100 95L85 60L115 60L100 95Z" fill="#0f172a" />

  <!-- Brain/Innovation Icon Above -->
  <g transform="translate(75, 10) scale(0.5)">
    <path d="M50 0C30 0 15 15 15 35C15 50 25 60 40 65V90H60V65C75 60 85 50 85 35C85 15 70 0 50 0Z" fill="#0ea5e9" opacity="0.8" />
    <path d="M48 20H52M35 30H40M60 30H65M35 45H40M60 45H65M45 75H55" stroke="white" stroke-width="2" stroke-linecap="round" />
    <circle cx="50" cy="35" r="5" fill="white" />
  </g>

  <!-- Bottom Dot / Location Pin Aspect -->
  <circle cx="100" cy="155" r="8" fill="#0284c7" />
  <circle cx="100" cy="155" r="4" fill="#38bdf8" />
</svg>
